<svg xmlns="http://www.w3.org/2000/svg" xmlns:xlink="http://www.w3.org/1999/xlink" width="250" zoomAndPan="magnify" viewBox="0 0 187.5 48.75" height="65" preserveAspectRatio="xMidYMid meet" version="1.0"><defs><g/></defs><g fill="#373643" fill-opacity="1"><g transform="translate(100.440554, 42.370545)"><g><path d="M 16.828125 -5.8125 C 17.765625 -6.34375 18.609375 -6.523438 19.359375 -6.359375 C 20.117188 -6.191406 20.734375 -5.832031 21.203125 -5.28125 C 21.671875 -4.738281 21.90625 -4.097656 21.90625 -3.359375 C 21.90625 -2.828125 21.738281 -2.296875 21.40625 -1.765625 C 21.082031 -1.242188 20.570312 -0.796875 19.875 -0.421875 C 18.976562 0.0664062 18.160156 0.359375 17.421875 0.453125 C 16.691406 0.554688 15.835938 0.609375 14.859375 0.609375 C 12.210938 0.609375 10.175781 0.0625 8.75 -1.03125 C 7.320312 -2.132812 6.34375 -3.5625 5.8125 -5.3125 C 5.28125 -7.070312 5.015625 -8.929688 5.015625 -10.890625 L 5.015625 -25.328125 L 2.6875 -25.328125 C 1.550781 -25.328125 0.707031 -25.628906 0.15625 -26.234375 C -0.394531 -26.847656 -0.671875 -27.503906 -0.671875 -28.203125 C -0.671875 -28.929688 -0.382812 -29.601562 0.1875 -30.21875 C 0.757812 -30.832031 1.59375 -31.140625 2.6875 -31.140625 L 5.015625 -31.140625 L 5.015625 -36.390625 C 5.015625 -37.453125 5.359375 -38.25 6.046875 -38.78125 C 6.742188 -39.3125 7.539062 -39.578125 8.4375 -39.578125 C 9.289062 -39.578125 10.082031 -39.3125 10.8125 -38.78125 C 11.550781 -38.25 11.921875 -37.453125 11.921875 -36.390625 L 11.921875 -31.140625 L 16.703125 -31.140625 C 17.765625 -31.140625 18.578125 -30.832031 19.140625 -30.21875 C 19.710938 -29.601562 20 -28.929688 20 -28.203125 C 20 -27.460938 19.710938 -26.796875 19.140625 -26.203125 C 18.578125 -25.617188 17.765625 -25.328125 16.703125 -25.328125 L 11.921875 -25.328125 L 11.921875 -10.890625 C 11.921875 -9.992188 11.984375 -9.125 12.109375 -8.28125 C 12.234375 -7.445312 12.507812 -6.753906 12.9375 -6.203125 C 13.363281 -5.660156 14.003906 -5.390625 14.859375 -5.390625 C 15.191406 -5.390625 15.550781 -5.4375 15.9375 -5.53125 C 16.320312 -5.632812 16.617188 -5.726562 16.828125 -5.8125 Z M 16.828125 -5.8125 "/></g></g></g><g fill="#373643" fill-opacity="1"><g transform="translate(120.628584, 42.370545)"><g><path d="M 28.4375 -31.140625 C 29.5 -31.140625 30.347656 -30.84375 30.984375 -30.25 C 31.617188 -29.65625 31.9375 -28.890625 31.9375 -27.953125 L 31.9375 -3.1875 C 31.9375 -2.25 31.617188 -1.484375 30.984375 -0.890625 C 30.347656 -0.296875 29.5 0 28.4375 0 C 27.425781 0 26.632812 -0.234375 26.0625 -0.703125 C 25.488281 -1.171875 25.140625 -1.789062 25.015625 -2.5625 C 23.628906 -1.46875 22.078125 -0.664062 20.359375 -0.15625 C 18.648438 0.351562 17.019531 0.609375 15.46875 0.609375 C 12.539062 0.609375 10.003906 -0.0625 7.859375 -1.40625 C 5.722656 -2.75 4.082031 -4.644531 2.9375 -7.09375 C 1.789062 -9.539062 1.21875 -12.394531 1.21875 -15.65625 C 1.21875 -18.84375 1.847656 -21.640625 3.109375 -24.046875 C 4.378906 -26.453125 6.144531 -28.335938 8.40625 -29.703125 C 10.675781 -31.066406 13.296875 -31.75 16.265625 -31.75 C 17.578125 -31.75 19.023438 -31.503906 20.609375 -31.015625 C 22.203125 -30.523438 23.671875 -29.75 25.015625 -28.6875 C 25.179688 -29.425781 25.550781 -30.019531 26.125 -30.46875 C 26.695312 -30.914062 27.46875 -31.140625 28.4375 -31.140625 Z M 16.203125 -5.5625 C 18.003906 -5.5625 19.738281 -5.957031 21.40625 -6.75 C 23.082031 -7.550781 24.265625 -8.726562 24.953125 -10.28125 L 24.953125 -20.859375 C 24.179688 -22.367188 23.019531 -23.53125 21.46875 -24.34375 C 19.914062 -25.15625 18.347656 -25.5625 16.765625 -25.5625 C 14.191406 -25.5625 12.117188 -24.625 10.546875 -22.75 C 8.984375 -20.875 8.203125 -18.488281 8.203125 -15.59375 C 8.203125 -12.582031 8.929688 -10.15625 10.390625 -8.3125 C 11.859375 -6.476562 13.796875 -5.5625 16.203125 -5.5625 Z M 16.203125 -5.5625 "/></g></g></g><g fill="#373643" fill-opacity="1"><g transform="translate(154.948382, 42.370545)"><g><path d="M 28.265625 -5.8125 C 29.078125 -4.914062 29.453125 -4.019531 29.390625 -3.125 C 29.328125 -2.226562 28.988281 -1.484375 28.375 -0.890625 C 27.769531 -0.296875 27.039062 0 26.1875 0 C 25.25 0 24.328125 -0.445312 23.421875 -1.34375 L 14.6875 -10.828125 L 6 -1.46875 C 5.0625 -0.488281 4.039062 0 2.9375 0 C 2.125 0 1.410156 -0.273438 0.796875 -0.828125 C 0.179688 -1.378906 -0.144531 -2.070312 -0.1875 -2.90625 C -0.226562 -3.738281 0.160156 -4.601562 0.984375 -5.5 L 10.40625 -15.65625 L 1.21875 -25.5625 C 0.40625 -26.46875 0.0195312 -27.347656 0.0625 -28.203125 C 0.101562 -29.054688 0.4375 -29.757812 1.0625 -30.3125 C 1.695312 -30.863281 2.441406 -31.140625 3.296875 -31.140625 C 3.828125 -31.140625 4.367188 -31.015625 4.921875 -30.765625 C 5.472656 -30.523438 6.015625 -30.117188 6.546875 -29.546875 L 14.796875 -20.671875 L 23.1875 -29.671875 C 23.675781 -30.203125 24.1875 -30.578125 24.71875 -30.796875 C 25.25 -31.023438 25.757812 -31.140625 26.25 -31.140625 C 27.101562 -31.140625 27.832031 -30.875 28.4375 -30.34375 C 29.050781 -29.8125 29.378906 -29.125 29.421875 -28.28125 C 29.460938 -27.445312 29.054688 -26.5625 28.203125 -25.625 L 19.03125 -15.78125 Z M 28.265625 -5.8125 "/></g></g></g><g fill="#7267c2" fill-opacity="1"><g transform="translate(0.110789, 42.370545)"><g><path d="M 17.5 -5.4375 C 18.675781 -5.4375 19.832031 -5.597656 20.96875 -5.921875 C 22.113281 -6.253906 23.175781 -6.804688 24.15625 -7.578125 C 25.09375 -8.441406 26.007812 -8.84375 26.90625 -8.78125 C 27.8125 -8.71875 28.554688 -8.390625 29.140625 -7.796875 C 29.734375 -7.203125 30.03125 -6.46875 30.03125 -5.59375 C 30.03125 -4.71875 29.601562 -3.875 28.75 -3.0625 C 27.320312 -1.675781 25.628906 -0.707031 23.671875 -0.15625 C 21.710938 0.394531 19.710938 0.648438 17.671875 0.609375 C 14.492188 0.609375 11.691406 -0.0390625 9.265625 -1.34375 C 6.835938 -2.644531 4.941406 -4.457031 3.578125 -6.78125 C 2.210938 -9.113281 1.53125 -11.804688 1.53125 -14.859375 C 1.53125 -18.203125 2.179688 -21.140625 3.484375 -23.671875 C 4.785156 -26.203125 6.628906 -28.179688 9.015625 -29.609375 C 11.398438 -31.035156 14.226562 -31.75 17.5 -31.75 C 20.757812 -31.75 23.53125 -31.082031 25.8125 -29.75 C 28.09375 -28.425781 29.832031 -26.570312 31.03125 -24.1875 C 32.238281 -21.800781 32.84375 -19.019531 32.84375 -15.84375 C 32.84375 -14.820312 32.640625 -13.953125 32.234375 -13.234375 C 31.828125 -12.523438 30.75 -12.171875 29 -12.171875 L 8.625 -12.171875 C 9.195312 -10.171875 10.273438 -8.546875 11.859375 -7.296875 C 13.453125 -6.054688 15.332031 -5.4375 17.5 -5.4375 Z M 17.5625 -25.6875 C 15.195312 -25.6875 13.21875 -24.941406 11.625 -23.453125 C 10.03125 -21.972656 9.007812 -20.03125 8.5625 -17.625 L 26.359375 -17.625 C 26.160156 -20.03125 25.367188 -21.972656 23.984375 -23.453125 C 22.597656 -24.941406 20.457031 -25.6875 17.5625 -25.6875 Z M 17.5625 -25.6875 "/></g></g></g><g fill="#7267c2" fill-opacity="1"><g transform="translate(34.614107, 42.370545)"><g><path d="M 0.0625 -26.546875 C -0.21875 -27.359375 -0.226562 -28.113281 0.03125 -28.8125 C 0.289062 -29.507812 0.738281 -30.070312 1.375 -30.5 C 2.007812 -30.925781 2.671875 -31.140625 3.359375 -31.140625 C 4.097656 -31.140625 4.738281 -30.941406 5.28125 -30.546875 C 5.832031 -30.160156 6.253906 -29.644531 6.546875 -29 L 15.90625 -10.03125 L 25.265625 -29.0625 C 25.628906 -29.789062 26.109375 -30.316406 26.703125 -30.640625 C 27.296875 -30.972656 27.914062 -31.140625 28.5625 -31.140625 C 29.300781 -31.140625 29.960938 -30.941406 30.546875 -30.546875 C 31.140625 -30.160156 31.546875 -29.628906 31.765625 -28.953125 C 31.992188 -28.285156 31.882812 -27.503906 31.4375 -26.609375 L 18.96875 -1.28125 C 18.675781 -0.75 18.242188 -0.300781 17.671875 0.0625 C 17.109375 0.425781 16.476562 0.609375 15.78125 0.609375 C 14.4375 0.609375 13.414062 0.0195312 12.71875 -1.15625 Z M 0.0625 -26.546875 "/></g></g></g><g fill="#7267c2" fill-opacity="1"><g transform="translate(65.202132, 42.370545)"><g><path d="M 17.5 -31.75 C 20.757812 -31.75 23.613281 -31.066406 26.0625 -29.703125 C 28.507812 -28.335938 30.40625 -26.429688 31.75 -23.984375 C 33.09375 -21.535156 33.765625 -18.679688 33.765625 -15.421875 C 33.722656 -12.234375 33.019531 -9.4375 31.65625 -7.03125 C 30.289062 -4.625 28.394531 -2.75 25.96875 -1.40625 C 23.539062 -0.0625 20.71875 0.609375 17.5 0.609375 C 14.3125 0.609375 11.492188 -0.0625 9.046875 -1.40625 C 6.609375 -2.75 4.703125 -4.625 3.328125 -7.03125 C 1.960938 -9.4375 1.257812 -12.234375 1.21875 -15.421875 C 1.21875 -18.679688 1.898438 -21.535156 3.265625 -23.984375 C 4.640625 -26.429688 6.546875 -28.335938 8.984375 -29.703125 C 11.429688 -31.066406 14.269531 -31.75 17.5 -31.75 Z M 17.5 -5.5 C 20.269531 -5.5 22.476562 -6.414062 24.125 -8.25 C 25.78125 -10.09375 26.609375 -12.484375 26.609375 -15.421875 C 26.609375 -18.429688 25.78125 -20.882812 24.125 -22.78125 C 22.476562 -24.675781 20.269531 -25.625 17.5 -25.625 C 14.757812 -25.625 12.550781 -24.675781 10.875 -22.78125 C 9.207031 -20.882812 8.375 -18.429688 8.375 -15.421875 C 8.375 -12.484375 9.207031 -10.09375 10.875 -8.25 C 12.550781 -6.414062 14.757812 -5.5 17.5 -5.5 Z M 17.5 -5.5 "/></g></g></g></svg>